<svg width="58" height="53" viewBox="0 0 58 53" fill="none" xmlns="http://www.w3.org/2000/svg">
<path d="M21.2896 33.5753L36.0549 6.82569C36.2579 6.4573 36.4609 6.09376 36.6446 5.71325C36.8113 5.36909 36.9515 5.02251 37.0433 4.64685C37.2366 3.85674 37.1835 3.03271 36.8838 2.27896C36.5928 1.53636 36.0663 0.910395 35.3855 0.497589C34.7175 0.0919542 33.9316 -0.0730498 33.1574 0.0298278C32.3841 0.134044 31.6761 0.500012 31.1178 1.07199C30.852 1.33859 30.6345 1.64154 30.4339 1.96389C30.2116 2.31774 30.011 2.68613 29.808 3.05452L28.8752 4.74379L27.94 3.0521C27.737 2.68613 27.5364 2.31774 27.3141 1.96389C27.1183 1.64239 26.889 1.3426 26.6302 1.06957C26.0855 0.503874 25.3673 0.137769 24.5906 0.0298278C23.8173 -0.0724844 23.0323 0.0924996 22.3649 0.497589C21.6841 0.910395 21.1576 1.53636 20.8666 2.27896C20.568 3.03214 20.5123 3.86023 20.7072 4.64685C20.799 5.02251 20.9391 5.36909 21.1035 5.71325C21.2871 6.09376 21.4901 6.4573 21.6931 6.82569L24.709 12.2886L12.9596 33.5729H4.90748C4.50149 33.5729 4.09551 33.5729 3.69193 33.5971C3.32461 33.619 2.96696 33.665 2.6093 33.7692C1.86016 33.9873 1.20285 34.4478 0.729194 35.0974C0.255672 35.751 0.000434613 36.5381 5.54539e-07 37.3461C-0.000433504 38.1541 0.253958 38.9415 0.726777 39.5956C1.20285 40.2452 1.85774 40.7032 2.6093 40.9238C2.96696 41.028 3.32461 41.0741 3.69193 41.0959C4.09551 41.1201 4.50149 41.1201 4.90748 41.1201H36.5576C36.6537 40.9081 36.7345 40.6894 36.7992 40.4657C37.8021 37.0339 35.3106 33.5729 31.8815 33.5729L21.2896 33.5753ZM7.52465 42.3537L5.61071 45.9892C5.41255 46.3673 5.21197 46.7405 5.03314 47.1307C4.86812 47.482 4.73859 47.849 4.64649 48.2262C4.45258 49.0336 4.50649 49.8809 4.80115 50.6571C5.09356 51.4278 5.60829 52.0701 6.26802 52.4869C6.92775 52.9038 7.69139 53.0735 8.44537 52.9644C9.20418 52.8578 9.89533 52.4845 10.4415 51.898C10.7025 51.6193 10.9151 51.3115 11.1133 50.9819C11.3308 50.6183 11.5265 50.2402 11.7247 49.8621L14.5013 44.5883C14.2839 44.2248 12.2128 41.0256 7.52465 42.3537ZM57.2726 35.0683C56.8064 34.4355 56.1445 33.9753 55.3901 33.7595C55.0369 33.6612 54.6737 33.6034 54.3074 33.5874C53.9015 33.5632 53.4979 33.5632 53.0919 33.5632H45.0664L34.4576 14.6225C33.0651 16.0877 32.1571 17.948 31.8573 19.9497C31.4678 22.4532 31.9328 25.0152 33.1768 27.2206L45.9219 49.9857C46.1249 50.3493 46.3254 50.7128 46.5478 51.0618C46.7508 51.3769 46.9683 51.675 47.2317 51.944C47.7899 52.5063 48.498 52.865 49.2737 52.9692C50.0494 53.0735 50.8275 52.9111 51.5018 52.5088C52.1799 52.1019 52.7068 51.4841 53.0025 50.7492C53.3046 50.0051 53.3553 49.1932 53.162 48.4128C53.0664 48.0491 52.9328 47.6965 52.7632 47.361C52.582 46.9853 52.3766 46.6266 52.1736 46.2631L49.235 41.0135H53.0919C53.4979 41.0135 53.9015 41.0135 54.3074 40.9916C54.6748 40.9698 55.0324 40.9238 55.3901 40.822C56.1457 40.606 56.8086 40.1449 57.275 39.5108C57.7473 38.8677 58.0014 38.0895 58 37.2908C58.0014 36.492 57.7473 35.7139 57.275 35.0707" fill="white"/>
</svg>
