<svg width="35" height="40" viewBox="0 0 35 40" fill="none" xmlns="http://www.w3.org/2000/svg">
<path d="M7.62939e-06 34.0306V5.9694C-0.00188065 4.86157 0.365753 3.77594 1.06037 2.83816C1.75498 1.90038 2.74816 1.14881 3.92496 0.670429C5.32123 0.110429 6.87469 -0.105259 8.4083 0.0479404C9.94192 0.20114 11.394 0.717067 12.5991 1.53693L32.6163 15.5675C33.3646 16.1181 33.9646 16.7989 34.3759 17.5636C34.7872 18.3284 35 19.1593 35 20C35 20.8407 34.7872 21.6716 34.3759 22.4363C33.9646 23.2011 33.3646 23.8819 32.6163 24.4325L12.5991 38.4631C11.394 39.2829 9.94192 39.7989 8.4083 39.9521C6.87469 40.1053 5.32123 39.8896 3.92496 39.3296C2.74816 38.8512 1.75498 38.0996 1.06037 37.1618C0.365753 36.2241 -0.00188065 35.1384 7.62939e-06 34.0306Z" fill="url(#paint0_linear_520_1481)"/>
<defs>
<linearGradient id="paint0_linear_520_1481" x1="16.9756" y1="46.0062" x2="19.0818" y2="6.64812" gradientUnits="userSpaceOnUse">
<stop stop-color="#379777"/>
<stop offset="1" stop-color="#4EE5B3"/>
</linearGradient>
</defs>
</svg>
