<svg width="37" height="40" viewBox="0 0 37 40" fill="none" xmlns="http://www.w3.org/2000/svg">
<path d="M27.3442 0C29.9443 0 32.3795 1.13268 34.137 2.93884C37.5455 6.44096 38.4947 12.5533 33.7168 17.4616L14.1144 37.6049C12.1277 39.6458 9.59994 40.4356 7.18081 39.7682C4.80191 39.1152 2.85535 37.1131 2.21789 34.6702C1.57038 32.1803 2.33653 29.5823 4.3213 27.5414L23.069 8.27569C24.1388 7.17567 25.3494 6.52463 26.564 6.39402C27.7685 6.2634 28.9167 6.65933 29.7211 7.48588C31.177 8.98796 31.3861 11.8064 28.961 14.2962L15.7935 27.8272C15.2526 28.3823 14.3758 28.3823 13.8349 27.8272C13.294 27.272 13.294 26.37 13.8349 25.8149L27.0044 12.2819C28.1425 11.1145 28.2471 9.99818 27.7625 9.49817C27.5493 9.28184 27.2276 9.18184 26.8555 9.2247C26.2865 9.28388 25.6369 9.66552 25.0276 10.288L6.27993 29.5517C4.99295 30.8742 4.50027 32.4293 4.8924 33.9293C5.08806 34.663 5.46733 35.3329 5.99339 35.874C6.51944 36.415 7.17441 36.8088 7.89469 37.0172C9.35461 37.4192 10.8708 36.911 12.1578 35.5885L31.7602 15.4452C35.412 11.6921 34.5372 7.37159 32.1804 4.94909C29.8216 2.52658 25.6208 1.62452 21.967 5.38175L2.36469 25.5251C2.23687 25.657 2.08444 25.7618 1.91631 25.8333C1.74817 25.9048 1.56768 25.9417 1.38538 25.9417C1.20307 25.9417 1.02258 25.9048 0.854446 25.8333C0.68631 25.7618 0.533886 25.657 0.406063 25.5251C0.145824 25.2564 0 24.8947 0 24.5179C0 24.1411 0.145824 23.7794 0.406063 23.5107L20.0084 3.36742C22.3189 0.995937 24.907 0 27.3442 0Z" fill="white"/>
</svg>
