<svg width="47" height="58" viewBox="0 0 47 58" fill="none" xmlns="http://www.w3.org/2000/svg">
<path d="M23.5 34.9764L31.1949 42.6713L5.875 57.2883C5.2501 57.6529 4.53591 57.8361 3.81266 57.8172C3.08942 57.7982 2.38577 57.578 1.78078 57.1813L1.49878 56.9776L23.5 34.9764ZM0 11.4764L19.8079 31.2843L0 51.0922V11.4764ZM35.8767 22.5997L45.0417 27.8925C47.6528 29.3991 47.6528 33.1669 45.0417 34.6761L35.8767 39.9688L27.1921 31.2843L35.8767 22.5997ZM5.875 5.28023L31.1949 19.8972L23.5 27.5922L1.49878 5.58834C2.11259 5.10276 2.85859 4.8136 3.63932 4.75863C4.42005 4.70366 5.1992 4.88545 5.875 5.28023Z" fill="white"/>
</svg>
