<svg width="35" height="47" viewBox="0 0 35 47" fill="none" xmlns="http://www.w3.org/2000/svg">
<path d="M0.00012207 39.5683V6.94078C-0.00174332 5.65268 0.361214 4.39038 1.04699 3.3C1.73276 2.20963 2.7133 1.33575 3.87512 0.779525C5.25362 0.128399 6.78731 -0.122388 8.30141 0.0557416C9.81551 0.233871 11.2491 0.833753 12.4389 1.78703L32.2014 18.1008C32.9401 18.741 33.5325 19.5325 33.9385 20.4217C34.3446 21.3109 34.5547 22.277 34.5547 23.2545C34.5547 24.232 34.3446 25.1981 33.9385 26.0873C33.5325 26.9765 32.9401 27.7681 32.2014 28.4083L12.4389 44.722C11.2491 45.6753 9.81551 46.2752 8.30141 46.4533C6.78731 46.6314 5.25362 46.3806 3.87512 45.7295C2.7133 45.1733 1.73276 44.2994 1.04699 43.209C0.361214 42.1187 -0.00174332 40.8564 0.00012207 39.5683Z" fill="url(#paint0_linear_473_350)"/>
<defs>
<linearGradient id="paint0_linear_473_350" x1="16.7597" y1="53.4927" x2="19.6406" y2="7.78046" gradientUnits="userSpaceOnUse">
<stop stop-color="#379777"/>
<stop offset="1" stop-color="#4EE5B3"/>
</linearGradient>
</defs>
</svg>
