<svg width="60" height="54" viewBox="0 0 60 54" fill="none" xmlns="http://www.w3.org/2000/svg">
<path d="M57.9973 1.27186C57.2205 0.635871 56.2834 0.219086 55.2854 0.065773C54.2875 -0.0875401 53.2661 0.0283448 52.3297 0.401118L3.45134 19.845C2.40633 20.2688 1.5168 20.9956 0.900761 21.9291C0.284722 22.8626 -0.0287038 23.9586 0.00206688 25.0717C0.0328376 26.1848 0.40635 27.2624 1.07305 28.1614C1.73975 29.0605 2.66812 29.7386 3.73499 30.1057L13.6219 33.4946L19.1314 51.4523C19.2069 51.6919 19.3162 51.9198 19.4559 52.1295C19.4777 52.1618 19.5077 52.1833 19.5296 52.2182C19.6907 52.4383 19.8847 52.6332 20.1051 52.796L20.296 52.9304C20.5547 53.0987 20.8406 53.2223 21.1415 53.2959L21.1769 53.2986L21.1933 53.3066C21.3755 53.3431 21.561 53.3611 21.747 53.3604L21.7961 53.3523C22.0754 53.3474 22.3522 53.3003 22.617 53.2126C22.677 53.1875 22.7352 53.1606 22.7916 53.132C22.9895 53.0518 23.1772 52.949 23.3507 52.8256L23.7653 52.4789L31.1348 44.4622L42.1264 52.8525C43.0935 53.5955 44.2847 53.9994 45.5111 54C46.7964 53.9985 48.0421 53.5616 49.0392 52.7626C50.0364 51.9635 50.7244 50.8509 50.9878 49.6114L59.8874 6.56617C60.0887 5.59776 60.0192 4.59366 59.6863 3.66116C59.3534 2.72866 58.7696 1.90281 57.9973 1.27186ZM22.827 34.3492C22.4501 34.7213 22.1922 35.1941 22.0852 35.7091L21.2397 39.751L19.1014 32.7824L30.1884 27.0931L22.827 34.3492ZM45.4702 48.6036L32.4794 38.6868C31.9361 38.2729 31.2543 38.0762 30.5702 38.136C29.8861 38.1957 29.2501 38.5076 28.7892 39.0093L26.4272 41.5758L27.2618 37.5796L46.5803 18.5442C47.0386 18.0898 47.3171 17.489 47.3656 16.8501C47.4141 16.2112 47.2294 15.5762 46.8447 15.0597C46.46 14.5432 45.9007 14.1791 45.2676 14.033C44.6345 13.8869 43.9693 13.9685 43.3919 14.2631L15.6675 28.4852L5.50782 24.8221L54.5444 5.49656L45.4702 48.6036Z" fill="white"/>
</svg>
