<svg width="90" height="90" viewBox="0 0 90 90" fill="none" xmlns="http://www.w3.org/2000/svg">
<circle cx="45" cy="45" r="45" transform="rotate(180 45 45)" fill="#3D3D3D" fill-opacity="0.71"/>
<path d="M58.9999 28.4317L58.9999 61.0592C59.0017 62.3473 58.6388 63.6096 57.953 64.7C57.2672 65.7904 56.2867 66.6643 55.1249 67.2205C53.7464 67.8716 52.2127 68.1224 50.6986 67.9443C49.1845 67.7661 47.7509 67.1662 46.5611 66.213L26.7986 49.8992C26.0599 49.259 25.4675 48.4675 25.0615 47.5783C24.6554 46.6891 24.4453 45.723 24.4453 44.7455C24.4453 43.768 24.6554 42.8019 25.0615 41.9127C25.4675 41.0235 26.0599 40.2319 26.7986 39.5917L46.5611 23.278C47.7509 22.3247 49.1845 21.7248 50.6986 21.5467C52.2127 21.3686 53.7464 21.6194 55.1249 22.2705C56.2867 22.8267 57.2672 23.7006 57.953 24.791C58.6388 25.8813 59.0017 27.1436 58.9999 28.4317Z" fill="url(#paint0_linear_337_176)"/>
<defs>
<linearGradient id="paint0_linear_337_176" x1="42.2403" y1="14.5073" x2="39.3594" y2="60.2195" gradientUnits="userSpaceOnUse">
<stop stop-color="#379777"/>
<stop offset="1" stop-color="#4EE5B3"/>
</linearGradient>
</defs>
</svg>
