<svg width="90" height="90" viewBox="0 0 90 90" fill="none" xmlns="http://www.w3.org/2000/svg">
<circle cx="45" cy="45" r="45" fill="#3D3D3D" fill-opacity="0.71"/>
<path d="M31.0001 61.5683V28.9408C30.9983 27.6527 31.3612 26.3904 32.047 25.3C32.7328 24.2096 33.7133 23.3357 34.8751 22.7795C36.2536 22.1284 37.7873 21.8776 39.3014 22.0557C40.8155 22.2339 42.2491 22.8338 43.4389 23.787L63.2014 40.1008C63.9401 40.741 64.5325 41.5325 64.9385 42.4217C65.3446 43.3109 65.5547 44.277 65.5547 45.2545C65.5547 46.232 65.3446 47.1981 64.9385 48.0873C64.5325 48.9765 63.9401 49.7681 63.2014 50.4083L43.4389 66.722C42.2491 67.6753 40.8155 68.2752 39.3014 68.4533C37.7873 68.6314 36.2536 68.3806 34.8751 67.7295C33.7133 67.1733 32.7328 66.2994 32.047 65.209C31.3612 64.1187 30.9983 62.8564 31.0001 61.5683Z" fill="url(#paint0_linear_337_167)"/>
<defs>
<linearGradient id="paint0_linear_337_167" x1="47.7597" y1="75.4927" x2="50.6406" y2="29.7805" gradientUnits="userSpaceOnUse">
<stop stop-color="#379777"/>
<stop offset="1" stop-color="#4EE5B3"/>
</linearGradient>
</defs>
</svg>
